<svg xmlns="http://www.w3.org/2000/svg"  viewBox="0 0 48 48" width="800px" height="800px"><path fill="#2f81f7" d="M30.546,10H16.922C15.308,10,14,11.308,14,12.922v30.155C14,44.692,15.308,46,16.922,46h22.155	C40.692,46,42,44.692,42,43.078V21.527c0-0.528-0.209-1.034-0.58-1.409l-9.454-9.527C31.591,10.213,31.079,10,30.546,10z"/><path fill="none" stroke="#5d5d5d00" stroke-linecap="round" stroke-linejoin="round" stroke-width="3" d="M12.5,5.5	c-1.657,0-3,1.343-3,3v31c0,1.657,1.343,3,3,3h16.16"/><path fill="none" stroke="#5d5d5d00" stroke-linecap="round" stroke-linejoin="round" stroke-width="3" d="M33.649,42.5H35.5	c1.657,0,3-1.343,3-3v-23h-8c-1.657,0-3-1.343-3-3v-8H17.213"/><line x1="17.5" x2="30.5" y1="23.5" y2="23.5" fill="none" stroke="#5d5d5d00" stroke-linecap="round" stroke-width="3"/><line x1="17.5" x2="30.5" y1="29.5" y2="29.5" fill="none" stroke="#5d5d5d00" stroke-linecap="round" stroke-width="3"/><line x1="17.5" x2="26.5" y1="35.5" y2="35.5" fill="none" stroke="#5d5d5d00" stroke-linecap="round" stroke-width="3"/><line x1="27.5" x2="34.404" y1="5.5" y2="12.404" fill="none" stroke="#5d5d5d00" stroke-linecap="round" stroke-linejoin="round" stroke-width="3"/></svg>